Patient4_TMGait_0pt6_01_left_06_EMG.mot
version=1
nRows=30
nColumns=33
inDegrees=no
endheader
time	1LAddLong	2LGlutMax	3LGlutMed	4LIliopsoas	5LSemiMemb	6LBicFemLong	7LRecFem	8LVastMed	9LVastLat	10LGasMed	11LTibAnt	12lTibPost	13LPeroneusLong	14LSol	15LExtDigLong	16LFlexDigLong	17RAddLong	18RGlutMax	19RGlutMed	20RIliopsoas	21RSemiMemb	22RBicFemLong	23RRecFem	24RVastMed	25RVastLat	26RGasMed	27RTibAnt	28RTibPost	29RPeroneusLong	30RSol	31RExtDigLong	32RFlexDigLong
8.13	0.004578	-0.22186	-0.088043	0.006256	0.031281	0.054474	-0.19363	-0.001678	-0.050659	-0.99899	0.022583	0.17227	-0.087585	0.45517	-0.046692	0.057526	-0.038452	0.21362	0.039825	0.045471	0.26291	-0.34027	-0.20309	0.16632	-0.065155	-0.001831	-0.005341	-0.016479	0.37994	0.003204	-0.001526	-0.011749
8.131	0.006256	-0.20325	-0.084076	0.020905	-0.010071	0.09613	-0.20706	-0.005188	-0.047455	0.10132	0.001984	0.21301	-0.078735	0.26154	-0.018768	0.50064	0.001831	0.083771	0.12009	0.0177	0.2681	-0.42129	-0.24735	0.06012	-0.13611	-0.000916	-0.018463	-0.019073	0.22629	-0.012054	-0.000458	-0.00412
8.132	0.018921	-0.20905	-0.031738	0.008087	-0.028992	0.10941	-0.16754	-0.00824	-0.042419	1.3864	-0.006104	0.29495	-0.025177	0.2388	0.000458	-0.006866	-0.035095	0.089264	0.14175	-0.001831	0.19134	-0.37949	-0.21332	0.06897	-0.086517	0.005341	-0.031891	-0.011902	0.082245	-0.024872	0.000763	-0.013428
8.133	0.015564	-0.1915	-0.068817	0.005341	-0.03479	0.066833	-0.15121	-0.002594	-0.044708	1.4458	-0.003815	-0.03891	0.048218	0.23621	-0.005493	0.18539	-0.066528	0.065918	-0.039215	-0.01709	0.067902	-0.30167	-0.19012	0.0737	-0.028229	-0.001221	0.000916	-0.010376	-0.38544	-0.000305	-0.006714	-0.010986
8.134	0.026398	-0.17975	-0.052948	0.020447	-0.015259	0.036011	-0.18295	-0.000916	-0.045013	-0.030823	-0.023041	-0.30029	0.12268	0.29144	0.003357	-1.0217	-0.075836	0.006256	-0.12756	-0.00061	0.18387	-0.21057	-0.13321	0.16495	0.090332	-0.010681	0.010223	-0.011902	-0.39764	0.011444	-0.001984	-0.00885
8.135	0.021667	-0.18478	-0.027618	0.000153	0.003662	-0.021667	-0.17807	-0.003204	-0.037231	-1.5013	-0.01709	0.027618	0.15411	0.26199	-0.013123	0.37247	-0.050812	0.005646	0.019073	-0.012817	0.43243	-0.067902	-0.049591	0.12268	0.072327	-0.010376	0.027466	-0.012054	-0.37216	-0.006714	-0.001221	-0.001373
8.136	0.011444	-0.17425	-0.049286	-0.00061	-0.033722	-0.1178	-0.18173	-0.003357	-0.028839	-1.9385	-0.007782	-0.15457	0.076447	0.081024	-0.021973	0.50446	-0.046082	-0.09201	0.27588	-0.0177	0.40222	0.041199	-0.020447	0.17242	0.024872	-0.007935	0.031128	-0.007477	-0.04303	-0.002441	-0.000916	-0.005188
8.137	0.018005	-0.16693	-0.015411	-0.005035	-0.055542	-0.10635	-0.16876	0.00473	-0.046997	-1.2325	0.00351	-0.036163	-0.057068	-0.1651	-0.029449	0.041199	-0.019989	-0.12955	0.50247	-0.008545	0.21744	0.020447	-0.006409	0.024567	0.005493	-0.00412	0.019836	-0.010529	0.46921	0.013428	-0.003662	-0.00061
8.138	0.00885	-0.11353	-0.031586	0.009613	-0.006409	-0.066986	-0.16129	0.003357	-0.060883	-0.89523	0.010223	0.078888	-0.07309	-0.7962	-0.099335	0.038605	0.032654	-0.21225	0.26001	-0.020752	0.11673	-0.011292	0.015106	-0.09613	-0.018921	-0.009308	0.050812	-0.013428	0.2919	0.010986	-0.001678	-0.003357
8.139	0.012817	-0.15427	-0.034943	0.020752	0.077515	-0.029602	-0.16037	0.007935	-0.049591	-0.67352	0.016174	0.026398	0.082703	-0.90881	-0.084534	0.027466	0.10269	-0.19943	0.008545	-0.011139	0.056458	0.059662	0.010223	-0.083771	0.017548	-0.00351	0.036469	-0.00946	0.16327	-0.021973	0.001373	-0.004578
8.14	0.015106	-0.15991	-0.047607	0.011597	0.045471	0.066681	-0.16373	0.000153	-0.041504	-0.49728	0.013123	-0.058594	0.20828	-0.49576	-0.06073	-0.012054	0.10605	-0.11444	-0.12283	0.014343	-0.03891	0.28397	-0.1619	0.01709	0.10574	-0.006409	0.073242	-0.011749	0.15884	-0.018311	-0.001221	-0.002136
8.141	0.012665	-0.15808	0.002289	0.010376	-0.001526	0.22232	-0.14496	0.00473	-0.041046	-0.27252	0.006561	-0.1001	0.17654	-0.27786	-0.038757	-0.27481	0.066528	-0.098572	-0.078583	-0.00412	-0.042725	0.35049	-0.27344	-0.10635	0.14114	-0.002289	0.10681	-0.01236	-0.10757	-0.032806	0.011139	-0.005798
8.142	0.009003	-0.14877	-0.00946	0.002747	-0.051117	0.15182	-0.14267	0.010681	-0.037842	-0.26215	0.006866	-0.047302	-0.037079	-0.019836	-0.007629	0.15747	0.019836	-0.10941	-0.24033	0.008392	0.2948	0.11017	-0.3627	-0.26627	0.23621	0.003357	0.023804	-0.011902	0.61645	-0.037384	-0.001678	-0.003967
8.143	0.00946	-0.13886	-0.02243	0.000916	-0.068207	0.13672	-0.1561	0.005188	-0.038147	-0.15732	0.013733	-0.030212	-0.065765	0.071411	0.007629	0.079803	-0.02655	-0.11551	-0.38483	0.00412	0.36743	-0.046844	-0.38773	-0.28503	0.25711	-0.00351	-0.039978	-0.009918	0.017242	-0.012817	0.00061	-0.001678
8.144	0.010223	-0.13107	-0.012054	0.001526	-0.08606	0.11856	-0.17014	0.000305	-0.020752	-0.18631	0.00824	-0.036469	-0.074158	0.12726	0.009613	0.079498	-0.052338	-0.077667	-0.058441	-0.00946	0.17273	-0.13641	-0.19943	-0.12802	0.17349	-0.003357	-0.066528	-0.006256	-0.46738	-0.038605	-0.00061	-0.009766
8.145	0.010223	-0.12375	0.016479	0.006104	-0.063171	0.055847	-0.15945	0.005341	-0.026093	-0.19333	0.000153	-0.028381	0.058746	0.12314	0.021515	-0.25574	-0.021362	-0.048065	-0.0354	0.000153	0.051575	-0.28397	-0.080566	-0.13534	0.20142	-0.011597	0.022888	-0.006561	-0.1152	0.012512	0.001221	-0.009003
8.146	0.016937	-0.11261	0.008545	-0.010681	0.003357	-0.056152	-0.16098	0.003662	-0.018616	-0.13229	0.004272	-0.027313	0.074005	0.27435	0.0177	-0.040741	0.014648	-0.088043	-0.050507	-0.001373	0.23697	-0.29587	-0.063934	-0.12268	0.19089	-0.010986	-0.015869	-0.005341	0.083923	0.072937	-0.003815	-0.00885
8.147	-0.035858	-0.11826	0.013733	-0.002136	0.000153	-0.099182	-0.1651	0.002594	-0.007019	-0.044556	0.005951	-0.029144	0.12497	0.34241	0.022736	0.067444	0.065308	-0.16541	0.19196	-0.037079	0.21927	-0.3865	-0.058289	-0.086365	0.097961	-0.011444	-0.056763	-0.005646	-0.37888	0.050964	0.000305	-0.011902
8.148	0.060883	-0.096893	0.023804	0.007477	-0.001678	-0.066071	-0.1622	0.004425	0.005951	0.034332	0.007782	-0.018005	0.096436	0.44083	0.034943	-0.032806	0.089569	-0.22797	0.022736	-0.1091	0.23407	-0.39139	-0.068207	-0.084381	-0.020142	-0.001221	-0.093842	0.001984	-0.30045	-0.08316	0.002136	-0.002136
8.149	0.026398	-0.068054	-0.001678	-0.003204	0.018616	-0.014648	-0.16602	0.00061	0.006866	0.047913	-0.001068	-0.019684	0.071564	0.35446	0.040131	-0.010681	0.10162	-0.3305	-0.086975	-0.14923	0.25528	-0.34561	-0.091705	-0.079803	-0.054779	-0.002136	0.044556	-0.003204	0.15991	-0.10788	0.001221	-0.003357
8.15	-0.012207	-0.079803	-0.007629	0.003052	0.007629	0.031433	-0.16266	0.000305	-0.007324	-0.086975	0.001221	-0.022278	0.097656	0.23865	0.041199	0.12894	0.099335	-0.27878	-0.070953	-0.084381	-0.092773	-0.22461	-0.092926	-0.10696	-0.014648	-0.003967	0.23056	0.000916	-0.016327	-0.089569	-0.000153	-0.009766
8.151	0.006866	-0.094604	0.006104	0.009918	-0.01358	0.040436	-0.16388	-0.00946	0.010529	-0.33203	-0.001831	-0.023651	0.18784	0.21378	0.028076	-0.028381	0.029907	-0.2153	0.008087	-0.02655	-0.14984	0.061798	-0.20706	-0.12146	0.040588	-0.010834	0.18524	-0.005493	0.13794	-0.030823	-0.003662	-0.00885
8.152	0.012817	-0.045624	-0.007019	0.00473	-0.050659	0.024719	-0.13916	0.001678	-0.015564	-0.41016	-0.00946	-0.054626	0.22003	0.15533	0.044708	-0.072632	0.006561	-0.11215	0.050812	0.14801	-0.034332	0.021973	-0.18143	-0.10361	0.12177	-0.010681	0.22705	-0.009308	0.27756	0.014496	-0.001526	-0.007477
8.153	0.007935	-0.04837	0.001984	0.000305	-0.086365	-0.084686	-0.11871	0.00351	-0.029755	-0.31876	0.001373	-0.19516	0.027618	0.18463	0.045471	-0.06012	-0.038147	-0.058441	-0.091858	0.21759	0.55206	-0.003815	-0.11551	0.097809	0.18906	-0.010986	0.39627	-0.003815	0.19134	-0.037842	-0.006104	-0.012054
8.154	0.016174	-0.034637	0.007324	-0.000305	-0.078278	-0.13718	-0.10422	-0.011444	-0.024261	-0.23529	0.011444	0.33325	-0.13855	0.21591	0.052795	-0.023956	0.01297	-0.079041	-0.083466	0.18707	0.5481	-0.027466	0.044556	0.064545	0.079651	-0.010376	0.59815	-0.001068	0.18539	-0.034027	-0.002289	-0.009613
8.155	0.028229	-0.039215	0.009155	-0.002594	0.006714	-0.121	-0.068054	0.003967	-0.043182	-0.31967	0.00824	-0.048676	-0.14648	0.20752	0.064087	-0.009918	0.060272	-0.1889	-0.11688	0.11475	0.088196	0.12558	0.1294	-0.024719	0.023651	-0.013123	0.48523	-0.002289	0.3421	-0.034943	-0.006866	-0.004883
8.156	0.028839	-0.032501	0.014954	0.022278	0.18356	-0.13245	-0.052185	0.001678	-0.050964	-0.26382	0.012817	0.36087	-0.24399	0.24231	0.074158	0.043793	0.06134	-0.28625	-0.096893	0.043488	-0.074768	0.21072	0.18662	-0.082092	-0.018921	-0.001831	0.098267	-0.00351	0.30411	-0.10986	-0.006714	-0.00946
8.157	0.014191	-0.045319	0.041199	0.022278	0.17639	-0.067291	-0.050201	0.001526	-0.06012	-0.10284	0.014038	-0.003204	-0.065613	0.12497	0.059662	-1.2917	0.025177	-0.33676	0.075226	-0.006866	-0.052032	0.19821	0.17731	-0.088806	-0.029907	0.002594	-0.45609	0.000916	-0.034332	-0.13214	-0.005188	-0.006866
8.158	0.007019	-0.036774	0.055237	0.010681	0.039978	-0.014191	-0.046539	-0.002441	-0.05249	0.15762	0.018768	-0.22049	0.002747	-0.049744	0.031433	0.17319	0.005188	-0.36102	0.28259	-0.027466	0.031891	0.15472	0.12161	-0.15152	-0.041351	0.006409	-0.90424	-0.001221	-0.5661	-0.14343	-0.005646	-0.001984
8.159	0.018158	-0.041046	0.078125	-0.000458	-0.030823	0.007629	-0.050659	0.00473	-0.056152	0.2565	0.014648	0.042572	0.040588	0.289	-0.005341	0.79636	-0.004272	-0.2478	0.35065	-0.03952	-0.081329	0.19669	0.072937	-0.11932	-0.056915	0.010071	-0.83893	-0.004272	-0.17792	-0.15793	-0.003662	-0.005951
